<svg width="52" height="52" viewBox="0 0 52 52" fill="none" xmlns="http://www.w3.org/2000/svg">
<g clip-path="url(#mask)">
<path d="M0.40625 26C0.40625 15.5538 1.69615 9.21594 5.45603 5.45603C9.21594 1.69615 15.5538 0.40625 26 0.40625C36.4462 0.40625 42.7841 1.69615 46.544 5.45603C50.3038 9.21594 51.5938 15.5538 51.5938 26C51.5938 36.4462 50.3038 42.7841 46.544 46.544C42.7841 50.3038 36.4462 51.5938 26 51.5938C15.5538 51.5938 9.21594 50.3038 5.45603 46.544C1.69615 42.7841 0.40625 36.4462 0.40625 26Z" fill="#292F3D"/>
<path d="M20.8005 10.075C19.6739 10.075 18.8891 11.1934 19.2724 12.2529L20.5248 15.7141C20.6531 16.0687 20.7188 16.4428 20.7188 16.8199V21.2365C20.7188 21.9544 20.481 22.6521 20.0428 23.2207L12.7481 32.684C9.8657 36.4233 12.5313 41.8438 17.2527 41.8438H34.341C39.0624 41.8438 41.728 36.4233 38.8455 32.684L31.5509 23.2207C31.1127 22.6521 30.875 21.9544 30.875 21.2365V16.8199C30.875 16.4428 30.9406 16.0687 31.0689 15.7141L32.3213 12.2529C32.7047 11.1934 31.9199 10.075 30.7933 10.075H20.8005Z" stroke="#999DBB" stroke-width="1.65"/>
<path d="M19.0782 29.4727C19.4647 29.8615 20.6372 30.5547 22.0702 30.0563C23.1026 29.6972 24.5596 29.0022 25.3832 28.4618C24.6462 28.5124 23.6584 28.4813 22.5356 28.1844C21.1497 27.8179 20.0732 27.7324 19.4648 27.9185C19.1687 28.0097 19.0171 28.1258 18.9024 28.3047C18.7698 28.5115 18.6289 29.0206 19.0782 29.4727Z" fill="#999DBB"/>
<path d="M34.4732 30.5216C29.6912 26.5879 23.9907 35.7277 19.3367 35.6478C17.0143 35.6083 16.1973 33.9131 15.9613 32.2253L18.7895 28.4109C18.5704 28.7493 18.5676 29.1815 18.8853 29.5339C19.3075 30.001 20.0644 30.5141 21.3497 30.4822C21.391 30.4813 21.4333 30.4793 21.4756 30.4774C21.5302 30.4746 21.5847 30.4708 21.6392 30.4662C21.706 30.4614 21.7728 30.453 21.8423 30.4445C21.8658 30.4417 21.8912 30.4389 21.9166 30.4351C22.0313 30.4202 22.1507 30.4004 22.2729 30.376C22.3095 30.3693 22.3472 30.3618 22.3848 30.3524C22.5362 30.3206 22.6932 30.282 22.8559 30.235C23.0185 30.1899 23.1878 30.1354 23.3617 30.0733C23.5573 30.0047 23.7613 29.9267 23.9729 29.8365C24.0133 29.8196 24.0518 29.8027 24.0913 29.7848C24.7353 29.502 25.3484 29.1515 25.9294 28.7558C25.9868 28.7164 26.0431 28.6778 26.1006 28.6412C26.1532 28.6055 26.2068 28.5699 26.2604 28.5359C26.2641 28.5322 26.2689 28.5303 26.2736 28.5266C26.3234 28.4946 26.3742 28.4626 26.4231 28.4317C26.4682 28.4035 26.5143 28.3743 26.5583 28.348C26.6242 28.3076 26.6882 28.269 26.752 28.2324H26.754C30.2977 26.1669 32.18 27.5614 33.0995 28.6731C33.1541 28.738 33.2076 28.8048 33.2575 28.8715C33.2744 28.8958 33.2923 28.9184 33.3101 28.9419L34.4722 30.5216H34.4732Z" fill="#444972"/>
<path d="M34.644 30.8199C31.8056 28.505 28.4654 31.4677 25.3924 33.6817C23.2921 35.1948 21.2239 36.4952 19.3368 36.4628C17.1862 36.4628 15.8186 34.7478 15.8186 32.4518L14.881 33.6817C13.3213 36.4013 15.2863 39.792 18.4237 39.792H20.2938C21.3852 39.7942 24.0576 39.4435 26.0151 38.0221C27.9727 36.6007 29.3884 35.4073 29.8516 34.9882C30.602 34.3169 31.2757 33.802 31.8945 33.3984C34.6797 31.582 36.1169 32.9061 36.2969 33.0468L34.644 30.8199Z" fill="#555B8E"/>
<path d="M36.5492 33.338C36.4882 33.2881 34.8277 31.934 32.3474 33.8943C31.7536 34.3637 31.1172 34.9692 30.4353 35.6182C28.7762 37.1966 26.8475 39.032 24.6048 39.7911L33.2565 39.792C36.3941 39.792 38.3592 36.4033 36.7994 33.6827C36.7994 33.6827 36.7204 33.5343 36.552 33.3406L36.5502 33.3388L36.5492 33.338Z" fill="#999DBB"/>
</g>
<defs>
<clipPath id="mask">
<rect width="52" height="52" fill="white"/>
</clipPath>
</defs>
</svg>
