<svg width="273" height="52" viewBox="0 0 273 52" fill="none" xmlns="http://www.w3.org/2000/svg">
<g clip-path="url(#clip0_990_774)">
<path d="M0.40625 26C0.40625 15.5538 1.69615 9.21594 5.45603 5.45603C9.21594 1.69615 15.5538 0.40625 26 0.40625C36.4462 0.40625 42.7841 1.69615 46.544 5.45603C50.3038 9.21594 51.5938 15.5538 51.5938 26C51.5938 36.4462 50.3038 42.7841 46.544 46.544C42.7841 50.3038 36.4462 51.5938 26 51.5938C15.5538 51.5938 9.21594 50.3038 5.45603 46.544C1.69615 42.7841 0.40625 36.4462 0.40625 26Z" fill="#F5F9FF"/>
<path d="M20.8005 10.075C19.6739 10.075 18.8891 11.1934 19.2724 12.2529L20.5248 15.7141C20.6531 16.0687 20.7188 16.4428 20.7188 16.8199V21.2365C20.7188 21.9544 20.481 22.6521 20.0428 23.2207L12.7481 32.684C9.8657 36.4233 12.5313 41.8438 17.2527 41.8438H34.341C39.0624 41.8438 41.728 36.4233 38.8455 32.684L31.5509 23.2207C31.1127 22.6521 30.875 21.9544 30.875 21.2365V16.8199C30.875 16.4428 30.9406 16.0687 31.0689 15.7141L32.3213 12.2529C32.7047 11.1934 31.9199 10.075 30.7933 10.075H20.8005Z" stroke="#4A4F7A" stroke-width="1.65"/>
<path d="M19.0782 29.4727C19.4647 29.8615 20.6372 30.5547 22.0702 30.0563C23.1026 29.6972 24.5596 29.0022 25.3832 28.4618C24.6462 28.5124 23.6584 28.4813 22.5356 28.1844C21.1497 27.8179 20.0732 27.7324 19.4648 27.9185C19.1687 28.0097 19.0171 28.1258 18.9024 28.3047C18.7698 28.5115 18.6289 29.0206 19.0782 29.4727Z" fill="#4A4F7A"/>
<path d="M34.4732 30.5216C29.6912 26.5879 23.9907 35.7277 19.3367 35.6478C17.0143 35.6083 16.1973 33.9131 15.9613 32.2253L18.7895 28.4109C18.5704 28.7493 18.5676 29.1815 18.8853 29.5339C19.3075 30.001 20.0644 30.5141 21.3497 30.4822C21.391 30.4813 21.4333 30.4793 21.4756 30.4774C21.5302 30.4746 21.5847 30.4708 21.6392 30.4662C21.706 30.4614 21.7728 30.453 21.8423 30.4445C21.8658 30.4417 21.8912 30.4389 21.9166 30.4351C22.0313 30.4202 22.1507 30.4004 22.2729 30.376C22.3095 30.3693 22.3472 30.3618 22.3848 30.3524C22.5362 30.3206 22.6932 30.282 22.8559 30.235C23.0185 30.1899 23.1878 30.1354 23.3617 30.0733C23.5573 30.0047 23.7613 29.9267 23.9729 29.8365C24.0133 29.8196 24.0518 29.8027 24.0913 29.7848C24.7353 29.502 25.3484 29.1515 25.9294 28.7558C25.9868 28.7164 26.0431 28.6778 26.1006 28.6412C26.1532 28.6055 26.2068 28.5699 26.2604 28.5359C26.2641 28.5322 26.2689 28.5303 26.2736 28.5266C26.3234 28.4946 26.3742 28.4626 26.4231 28.4317C26.4682 28.4035 26.5143 28.3743 26.5583 28.348C26.6242 28.3076 26.6882 28.269 26.752 28.2324H26.754C30.2977 26.1669 32.18 27.5614 33.0995 28.6731C33.1541 28.738 33.2076 28.8048 33.2575 28.8715C33.2744 28.8958 33.2923 28.9184 33.3101 28.9419L34.4722 30.5216H34.4732Z" fill="#9DA1C2"/>
<path d="M34.644 30.8199C31.8056 28.505 28.4654 31.4677 25.3924 33.6817C23.2921 35.1948 21.2239 36.4952 19.3368 36.4628C17.1862 36.4628 15.8186 34.7478 15.8186 32.4518L14.881 33.6817C13.3213 36.4013 15.2863 39.792 18.4237 39.792H20.2938C21.3852 39.7942 24.0576 39.4435 26.0151 38.0221C27.9727 36.6007 29.3884 35.4073 29.8516 34.9882C30.602 34.3169 31.2757 33.802 31.8945 33.3984C34.6797 31.582 36.1169 32.9061 36.2969 33.0468L34.644 30.8199Z" fill="#5C6399"/>
<path d="M36.5492 33.338C36.4882 33.2881 34.8277 31.934 32.3474 33.8943C31.7536 34.3637 31.1172 34.9692 30.4353 35.6182C28.7762 37.1966 26.8475 39.032 24.6048 39.7911L33.2565 39.792C36.3941 39.792 38.3592 36.4033 36.7994 33.6827C36.7994 33.6827 36.7204 33.5343 36.552 33.3406L36.5502 33.3388L36.5492 33.338Z" fill="#4A4F7A"/>
<path d="M71.6972 44C64.429 44 60 39.571 60 33.3817V18.5047C60 12.3722 64.9968 8 71.6972 8C76.0126 8 80.2713 9.19243 83.1104 14.0757C83.3375 14.53 83.4511 15.3249 82.7129 15.7792L78.6246 18.6183C77.6593 19.0158 77.1483 18.6183 76.7508 17.9369C75.6151 15.9495 74.1388 15.1546 72.1514 15.1546C69.3123 15.1546 68.0631 17.1987 68.0631 18.9022V33.3817C68.0631 35.0284 69.1987 36.7319 71.9811 36.7319C73.8549 36.7319 75.5584 35.653 76.694 34.0631C77.0915 33.6656 77.4322 32.8139 78.2839 33.2681L82.8833 35.7098C83.6782 36.1073 84.0757 36.6751 83.6214 37.4132C80.6688 42.4101 76.5237 44 71.6972 44Z" fill="#F5F9FF"/>
<path d="M138.698 14.4164C138.698 15.2681 138.527 15.7792 137.619 15.7792H131.713C130.691 15.7792 130.464 16.1767 130.464 16.8013L130.351 42.5237C130.351 43.3754 129.84 43.6593 128.931 43.6593H123.65C122.855 43.6593 122.288 43.3754 122.288 42.5237L122.344 16.858C122.344 16.1767 122.288 15.7792 121.152 15.7792H115.814C114.906 15.7792 114.622 15.2681 114.622 14.4164V9.9306C114.622 9.07886 114.906 8.56782 115.814 8.56782H137.619C138.414 8.56782 138.698 9.02208 138.698 9.9306V14.4164Z" fill="#F5F9FF"/>
<path d="M179.221 36.3912H191.486C192.168 36.3912 192.565 36.6751 192.565 37.5836V42.2965C192.565 43.1483 192.281 43.6593 191.486 43.6593H171.442C170.59 43.6593 170.079 43.1483 170.079 42.2965V9.64669C170.079 8.79495 170.59 8.56782 171.442 8.56782H176.78C177.574 8.56782 178.142 8.73817 178.142 9.64669V35.0852C178.142 35.9369 178.142 36.3912 179.221 36.3912Z" fill="#F5F9FF"/>
<path d="M197.392 8.56782C198.471 8.56782 199.039 8.68139 199.55 9.81703L203.695 21.2303C203.809 21.5142 204.149 21.4574 204.206 21.2871L208.295 9.9306C208.692 9.02208 209.09 8.56782 210.509 8.56782H215.847C217.38 8.56782 217.38 9.53312 217.153 10.0442L208.408 30.1451C208.011 30.8833 207.954 31.224 207.954 31.7918V42.2965C207.954 43.1483 207.443 43.6593 206.591 43.6593H201.254C200.402 43.6593 199.891 43.1483 199.891 42.2965V31.6215C199.891 31.224 199.834 30.8265 199.55 30.2587L190.749 10.1009C190.465 9.41956 190.238 8.6246 191.714 8.56782H197.392Z" fill="#F5F9FF"/>
<path d="M245.665 33.2114C245.665 40.2524 239.987 43.9432 233.344 43.9432C229.312 43.9432 224.713 42.9211 220.965 39.7413C219.943 38.8896 219.716 38.3785 220.624 37.1861L222.839 34.1199C223.804 32.9274 224.372 33.3249 225.224 33.8927C227.495 35.5962 231.243 36.7886 233.06 36.7886C236.921 36.7886 237.432 35.0284 237.432 33.7792C237.432 31.2808 234.366 29.9748 229.142 28.2145C224.883 26.795 221.249 24.1262 221.249 18.5615C221.249 12.1451 226.586 8.11356 232.946 8.11356C237.716 8.11356 240.839 9.24921 243.053 10.612C243.962 11.1798 244.189 11.4637 243.451 12.8833L241.804 16.1767C241.407 16.9716 240.725 17.3123 239.817 16.9148C238.113 16.1767 235.274 15.1546 233.173 15.1546C231.243 15.1546 229.255 15.8927 229.255 18.2776C229.255 20.7192 232.719 21.7413 234.422 22.3091C239.135 23.8991 245.665 26 245.665 33.2114Z" fill="#F5F9FF"/>
<path d="M272.89 14.4164C272.89 15.2681 272.72 15.7792 271.811 15.7792H265.906C264.884 15.7792 264.657 16.1767 264.657 16.8013L264.543 42.5237C264.543 43.3754 264.032 43.6593 263.124 43.6593H257.843C257.048 43.6593 256.48 43.3754 256.48 42.5237L256.537 16.858C256.537 16.1767 256.48 15.7792 255.345 15.7792H250.007C249.098 15.7792 248.815 15.2681 248.815 14.4164V9.9306C248.815 9.07886 249.098 8.56782 250.007 8.56782H271.811C272.606 8.56782 272.89 9.02208 272.89 9.9306V14.4164Z" fill="#F5F9FF"/>
<path d="M105.633 9.53312L113.98 42.2397C114.094 42.694 114.15 43.6593 112.788 43.6593H107.053C106.371 43.6593 105.803 43.3186 105.633 42.6372L104.781 38.6057L101.488 24.2397L100.352 18.3912C100.295 18.0505 99.9548 17.9369 99.898 18.3912L98.8191 24.2397L95.6393 38.4921L94.7876 42.6372C94.6173 43.3754 93.8791 43.6593 93.368 43.6593H87.6898C86.1669 43.6593 86.3809 42.8749 86.5508 42.2522L86.5542 42.2397L94.7308 9.53312C94.958 8.85173 95.469 8.56782 96.1504 8.56782H104.213C104.781 8.56782 105.406 8.56782 105.633 9.53312Z" fill="#F5F9FF"/>
<path d="M157.369 9.53312L165.716 42.2397C165.83 42.694 165.887 43.6593 164.524 43.6593H158.789C158.107 43.6593 157.54 43.3186 157.369 42.6372L156.518 38.6057L153.224 24.2397L152.089 18.3912C152.032 18.0505 151.691 17.9369 151.634 18.3912L150.555 24.2397L147.376 38.4921L146.524 42.6372C146.353 43.3754 145.615 43.6593 145.104 43.6593H139.426C137.903 43.6593 138.117 42.8749 138.287 42.2522L138.29 42.2397L146.467 9.53312C146.694 8.85173 147.205 8.56782 147.887 8.56782H155.95C156.518 8.56782 157.142 8.56782 157.369 9.53312Z" fill="#F5F9FF"/>
</g>
<defs>
<clipPath id="clip0_990_774">
<rect width="273" height="52" fill="white"/>
</clipPath>
</defs>
</svg>
